<svg xmlns="http://www.w3.org/2000/svg" width="35" height="35"><g fill="none" fill-rule="evenodd"><circle cx="17.5" cy="17.5" r="17.5" fill="#FFDD70"/><path fill="#FFF" fill-rule="nonzero" d="M26.08 15.545h-3.6a4.874 4.874 0 00-4.496-3.015c-2.688 0-4.88 2.216-4.88 4.938 0 2.721 2.192 4.937 4.88 4.937a4.861 4.861 0 004.48-2.998h3.616a1.93 1.93 0 001.92-1.94 1.937 1.937 0 00-1.92-1.922zm-8.096 3.846a1.895 1.895 0 01-1.888-1.907c0-1.06.848-1.907 1.888-1.907s1.888.848 1.888 1.907c0 1.06-.848 1.907-1.888 1.907zm7.68 5.263c.128.13.128.326.016.456-1.984 2.086-4.752 3.39-7.84 3.39-5.344 0-9.776-3.911-10.688-9.044H5.92c-1.056 0-1.92-.88-1.92-1.956 0-1.075.864-1.955 1.92-1.955h1.232c.88-4.938 5.056-8.767 10.112-9.028 3.216-.18 6.144 1.075 8.24 3.194.112.114.096.293-.016.407l-2.864 2.673a.507.507 0 01-.688 0 6.14 6.14 0 00-4.096-1.565c-3.568 0-6.432 3.064-6.176 6.714.208 3.064 2.64 5.573 5.664 5.818 1.872.163 3.584-.538 4.816-1.727a.496.496 0 01.704-.017l2.816 2.64z"/></g></svg>