<svg xmlns="http://www.w3.org/2000/svg" width="35" height="35"><g fill="none" fill-rule="evenodd"><circle cx="17.5" cy="17.5" r="17.5" fill="#F4F5F9"/><path fill="#D2D5E0" d="M23.25 12.667c1.054 0 1.917.862 1.917 1.916v9.584a1.922 1.922 0 01-1.917 1.916h-11.5a1.922 1.922 0 01-1.917-1.916v-9.584c0-1.054.863-1.916 1.917-1.916h.958V10.75A4.793 4.793 0 0117.5 5.958a4.793 4.793 0 014.792 4.792v1.917h.958zM16.5 20.3v.992a1 1 0 102 0V20.3a1.92 1.92 0 00.917-1.633A1.922 1.922 0 0017.5 16.75a1.922 1.922 0 00-1.917 1.917c0 .688.368 1.295.917 1.633zm3.97-7.633h-5.94V10.75a2.973 2.973 0 012.97-2.97 2.973 2.973 0 012.97 2.97v1.917z"/></g></svg>